{"title":"DASD-340 Pretty Exclusive AV Debut SakuraHana Yulia Transsexual","uid":15741954,"size":1835574211,"categoryP":"porn","categoryS":"movies","magnet":"?xt=urn:btih:c0098cd5f3dae38a79c8818a41e7b3ffd596d738&amp;dn=DASD-340+Pretty+Exclusive+AV+Debut+SakuraHana+Yulia+Transsexual&amp;tr=udp%3A%2F%2Ftracker.leechers-paradise.org%3A6969&amp;tr=udp%3A%2F%2Fzer0day.ch%3A1337&amp;tr=udp%3A%2F%2Fopen.demonii.com%3A1337&amp;tr=udp%3A%2F%2Ftracker.coppersurfer.tk%3A6969&amp;tr=udp%3A%2F%2Fexodus.desync.com%3A6969","seeders":0,"leechers":1,"uploader":"drdre10","files":3,"time":1472924787,"description":"screen shots &amp; cover are included in torrent.\r\n\r\n\r\nmovie is censored (mosaic)\r\n\r\n\r\n\r\nFormat                                   : MPEG-4\r\nFormat profile                           : Base Media / Version 2\r\nCodec ID                                 : mp42 (mp42/isom/avc1)\r\nFile size                                : 1.71 GiB\r\nDuration                                 : 3 h 4 min\r\nOverall bit rate mode                    : Variable\r\nOverall bit rate                         : 1 327 kb/s\r\nEncoded date                             : UTC 2016-06-24 08:00:09\r\nTagged date                              : UTC 2016-06-24 08:00:09\r\nWriting application                      : TMPGEnc Video Mastering Works 6 Version. 6.0.7.19\r\n\r\nVideo\r\nID                                       : 2\r\nFormat                                   : AVC\r\nFormat/Info                              : Advanced Video Codec\r\nFormat profile                           :   \r\nFormat settings, CABAC                   : Yes\r\nFormat settings, ReFrames                : 16 frames\r\nCodec ID                                 : avc1\r\nCodec ID/Info                            : Advanced Video Coding\r\nDuration                                 : 3 h 4 min\r\nBit rate mode                            : Constant\r\nBit rate                                 : 1 200 kb/s\r\nWidth                                    : 856 pixels\r\nHeight                                   : 480 pixels\r\nDisplay aspect ratio                     : 16:9\r\nFrame rate mode                          : Constant\r\nFrame rate                               : 29.970 (30000/1001) FPS\r\nStandard                                 : Component\r\nColor space                              : YUV\r\nChroma subsampling                       : 4:2:0\r\nBit depth                                : 8 bits\r\nScan type                                : Progressive\r\nBits/(Pixel*Frame)                       : 0.097\r\nStream size                              : 1.54 GiB (90%)\r\nEncoded date                             : UTC 2016-06-24 08:00:09\r\nTagged date                              : UTC 2016-06-24 08:00:09\r\nColor range                              : Limited\r\nColor primaries                          : BT.709\r\nTransfer characteristics                 : BT.709\r\nMatrix coefficients                      : BT.709\r\n\r\nAudio\r\nID                                       : 1\r\nFormat                                   : AAC\r\nFormat/Info                              : Advanced Audio Codec\r\nFormat profile                           : LC\r\nCodec ID                                 : 40\r\nDuration                                 : 3 h 4 min\r\nBit rate mode                            : Variable\r\nBit rate                                 : 125 kb/s\r\nMaximum bit rate                         : 576 kb/s\r\nChannel(s)                               : 2 channels\r\nChannel positions                        : Front: L R\r\nSampling rate                            : 48.0 kHz\r\nFrame rate                               : 46.875 FPS (1024 spf)\r\nCompression mode                         : Lossy\r\nStream size                              : 165 MiB (9%)\r\nEncoded date                             : UTC 2016-06-24 08:00:09\r\nTagged date                              : UTC 2016-06-24 08:00:09","torrent":{"xt":"urn:btih:c0098cd5f3dae38a79c8818a41e7b3ffd596d738","amp;dn":"DASD-340+Pretty+Exclusive+AV+Debut+SakuraHana+Yulia+Transsexual","amp;tr":["udp%3A%2F%2Ftracker.leechers-paradise.org%3A6969","udp%3A%2F%2Fzer0day.ch%3A1337","udp%3A%2F%2Fopen.demonii.com%3A1337","udp%3A%2F%2Ftracker.coppersurfer.tk%3A6969","udp%3A%2F%2Fexodus.desync.com%3A6969"],"infoHash":"c0098cd5f3dae38a79c8818a41e7b3ffd596d738","infoHashBuffer":{"type":"Buffer","data":[192,9,140,213,243,218,227,138,121,200,129,138,65,231,179,255,213,150,215,56]},"announce":[],"urlList":[]}}